<svg xmlns="http://www.w3.org/2000/svg" x="0px" y="0px" width="100" height="100" viewBox="0,0,255.99132,255.99132">
<g fill="#ffffff" fill-rule="nonzero" stroke="none" stroke-width="1" stroke-linecap="butt" stroke-linejoin="miter" stroke-miterlimit="10" stroke-dasharray="" stroke-dashoffset="0" font-family="none" font-weight="none" font-size="none" text-anchor="none" style="mix-blend-mode: normal"><g transform="scale(2.56,2.56)"><path d="M31,18c-7.1797,0 -13,5.8203 -13,13v39c0,7.1797 5.8203,13 13,13h39c7.1797,0 13,-5.8203 13,-13v-39c0,-7.1797 -5.8203,-13 -13,-13zM31,20h39c6.07513,0 11,4.92487 11,11v39c0,6.07513 -4.92487,11 -11,11h-39c-6.07513,0 -11,-4.92487 -11,-11v-39c0,-6.07513 4.92487,-11 11,-11zM33.83789,23c-2.87446,-0.00024 -5.63126,1.14153 -7.66381,3.17408c-2.03255,2.03255 -3.17432,4.78935 -3.17408,7.66381v33.32422c-0.00024,2.87446 1.14153,5.63126 3.17408,7.66381c2.03255,2.03255 4.78935,3.17432 7.66381,3.17408h33.32422c5.98558,-0.00006 10.83783,-4.85231 10.83789,-10.83789v-18.66211c0,-0.27614 -0.22386,-0.5 -0.5,-0.5c-0.27614,0 -0.5,0.22386 -0.5,0.5v18.66211c0.00024,2.60924 -1.03618,5.11169 -2.88119,6.9567c-1.84501,1.84501 -4.34746,2.88143 -6.9567,2.88119h-33.32422c-5.43329,-0.00006 -9.83783,-4.4046 -9.83789,-9.83789v-33.32422c-0.00024,-2.60924 1.03618,-5.11169 2.88119,-6.9567c1.84501,-1.84501 4.34746,-2.88143 6.9567,-2.88119h33.66211c0.27614,0 0.5,-0.22386 0.5,-0.5c0,-0.27614 -0.22386,-0.5 -0.5,-0.5zM35,34v4h-4v25h4v5h12v-5h4v-25h-4v-4zM55,34v28v6h6v-14h5v-10h5v-10zM36,35h10v3h-10zM56,35h14v2.89258h-10v6.10742h5v4h-5v14h-4zM77.48633,36.58008c-0.27003,0.00738 -0.48537,0.22792 -0.48633,0.49805v2c0,0.27614 0.22386,0.5 0.5,0.5c0.27614,0 0.5,-0.22386 0.5,-0.5v-2c-0.00048,-0.13467 -0.05526,-0.26346 -0.15195,-0.3572c-0.09669,-0.09375 -0.2271,-0.14453 -0.36173,-0.14084zM32,39h3v18.89258h-3zM36,39h10v4h-10zM47,39h3v18.89258h-3zM61,39h9v4h-9zM77.5,40.57813c-0.27614,0 -0.5,0.22386 -0.5,0.5v4c0,0.27614 0.22386,0.5 0.5,0.5c0.27614,0 0.5,-0.22386 0.5,-0.5v-4c0,-0.27614 -0.22386,-0.5 -0.5,-0.5zM36,44h10v14h-10zM61,49h4v4h-4zM32,59h3v3h-3zM36,59h10v3h-10zM47,59h3v3h-3zM36,63h10v4h-10zM56,63h4v4h-4z"></path></g></g>
</svg>